:SAMPLES-PER-SECOND 30
:FULLY-SPECIFIED
:DEGREES
1296
root  59.4344 37.8274 21.2163 -168.673 8.9875 177.257
RightUpLeg  -37.1651 -26.564 -6.11442
RightLeg  24.0718 2.20005 0.8408
RightFoot  4.46648 -0.885862 6.60407
RightToes  0.000482159 0.542163 -0.142577
Spine  47.3129 -4.6882 9.25779
Spine1  8.44277 -1.17892 -0.121258
HEad  -18.2918 -11.5528 -0.0263462
LeftShoulder1  11.4194 -23.4614 -36.123
LeftArm  -14.8837 -34.1916 -29.695
LeftForeArm  30.8807 -25.3874 -3.80368
LeftHand  -0.25398 0.0180481 5.50724
RightShoulder  4.74891 10.8838 26.9655
RightArm  -26.2519 43.389 19.3513
RightForeArm  1.38227 8.26646 5.69706
RightHand  -1.54271 6.91279 -14.8823
LeftUpLeg  -37.996 -5.72088 4.50081
LeftLeg  38.308 4.9734 4.55003
LeftFoot  -5.59534 0.0667023 -0.619455
LeftToes  1.06246e-005 4.65854e-005 -8.18503e-006
1297
root  60.7128 37.9958 21.7352 -166.44 6.25281 177.274
RightUpLeg  -40.0242 -28.373 -2.09634
RightLeg  24.1954 1.46219 0.493815
RightFoot  3.9923 -0.570163 4.45032
RightToes  0.000482159 0.542163 -0.142577
Spine  50.418 -5.52939 10.0548
Spine1  8.03523 -1.20139 -0.324026
HEad  -21.8597 -10.473 0.881358
LeftShoulder1  11.4141 -24.1249 -35.1016
LeftArm  -17.9309 -39.403 -28.6917
LeftForeArm  27.9677 -23.5939 -3.61523
LeftHand  -0.25398 0.0180481 5.50724
RightShoulder  4.96342 11.7573 26.4552
RightArm  -30.8899 47.7978 13.8457
RightForeArm  2.64719 6.31336 5.19191
RightHand  -1.07523 6.78886 -10.6216
LeftUpLeg  -40.1438 1.17997 1.28162
LeftLeg  36.8185 8.6518 7.26348
LeftFoot  -4.51915 0.00247643 0.440721
LeftToes  1.06246e-005 4.65854e-005 -8.18503e-006
1298
root  61.8588 38.1527 22.1097 -163.916 3.88803 176.831
RightUpLeg  -43.2584 -29.9012 1.42967
RightLeg  23.8883 0.800454 0.16282
RightFoot  4.2091 -0.371127 2.92441
RightToes  0.000482159 0.542163 -0.142577
Spine  52.8918 -6.44922 10.5529
Spine1  7.58378 -1.365 -0.951623
HEad  -25.1938 -9.11352 1.90382
LeftShoulder1  11.2057 -24.4705 -33.8554
LeftArm  -22.56 -44.4257 -27.3942
LeftForeArm  25.0986 -21.3392 -3.47049
LeftHand  -0.25398 0.0180481 5.50724
RightShoulder  5.22634 12.6561 26.2622
RightArm  -35.3886 50.664 8.3177
RightForeArm  5.26252 6.60818 4.90481
RightHand  -0.565851 6.60669 -5.90174
LeftUpLeg  -41.8731 8.03147 -4.06543
LeftLeg  34.0891 8.47001 6.49583
LeftFoot  -4.79781 0.0657797 -0.665327
LeftToes  1.06246e-005 4.65854e-005 -8.18503e-006
1299
root  62.8671 38.2531 22.344 -161.063 2.04951 176.484
RightUpLeg  -47.2457 -31.3105 5.4018
RightLeg  23.8734 0.804492 0.165133
RightFoot  3.80948 -0.163076 1.41628
RightToes  0.000482159 0.542163 -0.142577
Spine  54.5647 -7.24697 11.0749
Spine1  7.56335 -1.38322 -1.7216
HEad  -27.5854 -7.72468 1.86278
LeftShoulder1  10.9959 -24.6376 -32.871
LeftArm  -27.3963 -48.8379 -25.2478
LeftForeArm  23.6373 -19.9006 -3.35161
LeftHand  -0.25398 0.0180481 5.50724
RightShoulder  5.40802 13.3152 26.0607
RightArm  -39.2185 52.557 3.23723
RightForeArm  6.53304 8.03026 4.97487
RightHand  -0.199051 6.7503 -2.35593
LeftUpLeg  -43.4451 14.2514 -10.342
LeftLeg  31.0471 6.75 4.71308
LeftFoot  -5.46256 0.0778485 -0.835247
LeftToes  1.06246e-005 4.65854e-005 -8.18503e-006
1300
root  63.7907 38.3166 22.4945 -158.186 0.891663 176.313
RightUpLeg  -51.114 -31.7686 9.46607
RightLeg  23.6046 0.950416 0.23245
RightFoot  3.32919 0.0541419 -0.238434
RightToes  0.000482159 0.542163 -0.142577
Spine  56.1032 -7.70422 11.336
Spine1  7.58485 -0.887264 -2.95929
HEad  -29.3414 -6.59059 1.52291
LeftShoulder1  10.8737 -25.1786 -31.7185
LeftArm  -31.3121 -52.2043 -22.452
LeftForeArm  21.7455 -18.7257 -3.18988
LeftHand  -0.25398 0.0180481 5.50724
RightShoulder  5.56636 13.4698 26.7408
RightArm  -42.6258 53.6575 -1.45541
RightForeArm  5.98116 9.71495 5.15316
RightHand  0.139562 7.95286 0.699402
LeftUpLeg  -45.0117 18.8945 -15.8083
LeftLeg  27.9866 7.07357 4.38681
LeftFoot  -6.51612 -0.0501117 2.18652
LeftToes  1.06246e-005 4.65854e-005 -8.18503e-006
